<svg width="270" height="75" viewBox="0 0 270 75" fill="none" xmlns="http://www.w3.org/2000/svg">
<path d="M11.2852 38.8203V37.5898H3.75V31.1797H12.375V29.9375H2.35547V47H12.4336V45.7578H3.75V38.8203H11.2852ZM26.9414 47V29.9375H25.5352V44.2695L17.707 29.9375H16.3125V47H17.707V32.6328L25.5469 47H26.9414Z" fill="black"/>
<path d="M103.433 35.6875C103.433 34.7734 102.659 34 101.745 34H96.9639L89.4404 23.7344C88.7373 22.6797 87.3311 22.4688 86.3467 23.2422C85.292 23.9453 85.0811 25.3516 85.8545 26.3359L91.4092 34H74.8857L80.4404 26.3359C81.2139 25.3516 81.0029 23.9453 79.9482 23.2422C78.9639 22.4688 77.5576 22.6797 76.8545 23.7344L69.3311 34H64.6201C63.6357 34 62.9326 34.7734 62.9326 35.6875V36.8125C62.9326 37.7969 63.6357 38.5 64.6201 38.5H65.1826L67.0107 51.3672C67.2217 53.0547 68.6279 54.25 70.3154 54.25H95.9795C97.667 54.25 99.0732 53.0547 99.2842 51.3672L101.183 38.5H101.745C102.659 38.5 103.433 37.7969 103.433 36.8125V35.6875ZM84.8701 48.0625C84.8701 49.0469 84.0967 49.75 83.1826 49.75C82.1982 49.75 81.4951 49.0469 81.4951 48.0625V40.1875C81.4951 39.2734 82.1982 38.5 83.1826 38.5C84.0967 38.5 84.8701 39.2734 84.8701 40.1875V48.0625ZM92.7451 48.0625C92.7451 49.0469 91.9717 49.75 91.0576 49.75C90.0732 49.75 89.3701 49.0469 89.3701 48.0625V40.1875C89.3701 39.2734 90.0732 38.5 91.0576 38.5C91.9717 38.5 92.7451 39.2734 92.7451 40.1875V48.0625ZM76.9951 48.0625C76.9951 49.0469 76.2217 49.75 75.3076 49.75C74.3232 49.75 73.6201 49.0469 73.6201 48.0625V40.1875C73.6201 39.2734 74.3232 38.5 75.3076 38.5C76.2217 38.5 76.9951 39.2734 76.9951 40.1875V48.0625Z" fill="#51D1A8"/>
<path d="M158.349 26.9297C154.481 23.625 148.786 24.2578 145.2 27.9141L143.864 29.3203L142.458 27.9141C138.942 24.2578 133.177 23.625 129.31 26.9297C124.88 30.7266 124.669 37.4766 128.606 41.5547L142.247 55.6172C143.091 56.5312 144.567 56.5312 145.411 55.6172L159.052 41.5547C162.989 37.4766 162.778 30.7266 158.349 26.9297Z" fill="#E94A4A"/>
<path d="M270 37.5C270 58.2107 252.958 75 231.936 75C210.914 75 193.872 58.2107 193.872 37.5C193.872 16.7893 210.914 0 231.936 0C252.958 0 270 16.7893 270 37.5Z" fill="#C4C4C4"/>
</svg>
