<svg width="1110" height="167" viewBox="0 0 1110 167" fill="none" xmlns="http://www.w3.org/2000/svg">
<path d="M0.691406 14.2344V20.4219H8.53125V14.1992C8.53125 11.9258 8.82422 9.92187 9.41016 8.1875C9.99609 6.42969 10.7344 4.78906 11.625 3.26562L7.125 0.488281C6.21094 1.30859 5.36719 2.25781 4.59375 3.33594C3.82031 4.41406 3.14062 5.5625 2.55469 6.78125C1.96875 8 1.51172 9.25391 1.18359 10.543C0.855469 11.8086 0.691406 13.0391 0.691406 14.2344ZM12.6797 14.2344V20.4219H20.5195V14.1992C20.5195 11.9258 20.8125 9.92187 21.3984 8.1875C21.9844 6.42969 22.7227 4.78906 23.6133 3.26562L19.1133 0.488281C18.1992 1.30859 17.3555 2.25781 16.582 3.33594C15.8086 4.41406 15.1289 5.5625 14.543 6.78125C13.957 8 13.5 9.25391 13.1719 10.543C12.8438 11.8086 12.6797 13.0391 12.6797 14.2344ZM40.418 56H49.3477L53.6367 28.3672L54.0234 25.7656L54.4102 28.3672L58.875 56H67.8047L74.9062 4.8125H65.8359L62.3555 33.5L62.1094 35.6445L61.793 33.5352L57.5039 4.8125H50.4375L46.3945 33.3242L46.0781 35.4336L45.832 33.4297L42.4219 4.8125H33.3867L40.418 56ZM99.1289 56.7031C102.809 56.7031 105.996 55.9883 108.691 54.5586C111.387 53.1289 113.355 51.5352 114.598 49.7773L109.711 44.5039C108.586 45.957 107.121 47.0469 105.316 47.7734C103.512 48.5 101.648 48.8633 99.7266 48.8633C98.3672 48.8633 97.1133 48.6523 95.9648 48.2305C94.8164 47.8086 93.7969 47.2109 92.9062 46.4375C92.0391 45.6875 91.3477 44.8555 90.832 43.9414C90.3164 43.0039 89.8945 41.7734 89.5664 40.25V40.1445H115.371V35.9961C115.371 33.207 114.984 30.6641 114.211 28.3672C113.438 26.0469 112.312 24.0664 110.836 22.4258C109.336 20.7852 107.508 19.5195 105.352 18.6289C103.219 17.7148 100.781 17.2578 98.0391 17.2578C95.3906 17.2578 92.9414 17.7383 90.6914 18.6992C88.4414 19.6602 86.4961 21.0078 84.8555 22.7422C83.2148 24.4766 81.9375 26.5508 81.0234 28.9648C80.1094 31.3555 79.6523 34.0039 79.6523 36.9102V38.3164C79.6523 40.8711 80.1094 43.2734 81.0234 45.5234C81.9609 47.75 83.2852 49.6836 84.9961 51.3242C86.707 52.9883 88.7578 54.3008 91.1484 55.2617C93.5391 56.2227 96.1992 56.7031 99.1289 56.7031ZM97.9688 25.168C99.2109 25.168 100.301 25.3672 101.238 25.7656C102.199 26.1406 103.008 26.6562 103.664 27.3125C104.32 27.9922 104.836 28.7891 105.211 29.7031C105.586 30.6172 105.773 31.5898 105.773 32.6211V33.3945H89.7422C89.9766 32.1523 90.3281 31.0273 90.7969 30.0195C91.2656 29.0117 91.8516 28.1445 92.5547 27.418C93.2344 26.6914 94.0312 26.1406 94.9453 25.7656C95.8594 25.3672 96.8672 25.168 97.9688 25.168ZM178.758 56H188.812L204.316 4.8125H193.418L184.699 38.2109L183.75 41.6914L182.871 38.2461L174.188 4.8125H163.289L178.758 56ZM234.164 56H244.078V55.4023C243.586 54.4414 243.211 53.293 242.953 51.957C242.695 50.6211 242.566 48.9336 242.566 46.8945V30.582C242.566 28.3789 242.156 26.4453 241.336 24.7812C240.516 23.0938 239.379 21.6992 237.926 20.5977C236.473 19.4961 234.75 18.6641 232.758 18.1016C230.789 17.5391 228.656 17.2578 226.359 17.2578C223.805 17.2578 221.531 17.5859 219.539 18.2422C217.57 18.875 215.906 19.7422 214.547 20.8438C213.164 21.9453 212.109 23.2227 211.383 24.6758C210.68 26.1289 210.328 27.6641 210.328 29.2812H220.102C220.102 28.6016 220.195 27.9805 220.383 27.418C220.594 26.8555 220.91 26.375 221.332 25.9766C221.801 25.5312 222.41 25.1914 223.16 24.957C223.91 24.6992 224.801 24.5703 225.832 24.5703C227.004 24.5703 228.023 24.7227 228.891 25.0273C229.781 25.3086 230.52 25.7188 231.105 26.2578C231.668 26.7734 232.09 27.3945 232.371 28.1211C232.652 28.8242 232.793 29.6211 232.793 30.5117V32.7617H227.344C224.531 32.7617 222.035 33.0195 219.855 33.5352C217.699 34.0273 215.883 34.7539 214.406 35.7148C212.766 36.7695 211.535 38.1172 210.715 39.7578C209.895 41.375 209.484 43.2383 209.484 45.3477C209.484 46.9883 209.812 48.5117 210.469 49.918C211.125 51.3008 212.039 52.4961 213.211 53.5039C214.383 54.5117 215.777 55.2969 217.395 55.8594C219.035 56.4219 220.828 56.7031 222.773 56.7031C223.969 56.7031 225.082 56.5859 226.113 56.3516C227.145 56.1406 228.094 55.8359 228.961 55.4375C229.805 55.0625 230.578 54.6172 231.281 54.1016C231.984 53.5859 232.605 53.0352 233.145 52.4492C233.262 53.1289 233.402 53.7734 233.566 54.3828C233.73 54.9922 233.93 55.5312 234.164 56ZM224.848 49.1445C223.934 49.1445 223.125 49.0391 222.422 48.8281C221.742 48.5938 221.168 48.2891 220.699 47.9141C220.23 47.5156 219.867 47.0352 219.609 46.4727C219.375 45.8867 219.258 45.2539 219.258 44.5742C219.258 43.707 219.422 42.9102 219.75 42.1836C220.078 41.4336 220.582 40.7891 221.262 40.25C221.941 39.7344 222.82 39.3359 223.898 39.0547C224.977 38.75 226.277 38.5977 227.801 38.5977H232.793V45.1367C232.512 45.6289 232.125 46.1211 231.633 46.6133C231.141 47.082 230.555 47.5039 229.875 47.8789C229.195 48.2539 228.434 48.5586 227.59 48.793C226.746 49.0273 225.832 49.1445 224.848 49.1445ZM255.68 2V9.98047H267.07V48.0547H255.68V56H287.848V48.0547H276.949V2H255.68ZM321.703 56H330.562V17.9609H320.754V44.6445C320.449 45.2539 320.086 45.8047 319.664 46.2969C319.242 46.7891 318.762 47.2109 318.223 47.5625C317.59 47.9609 316.852 48.2656 316.008 48.4766C315.188 48.6875 314.262 48.793 313.23 48.793C312.082 48.793 311.109 48.6523 310.312 48.3711C309.516 48.0898 308.871 47.6211 308.379 46.9648C307.887 46.332 307.523 45.4883 307.289 44.4336C307.078 43.3789 306.973 42.0781 306.973 40.5312V17.9609H297.199V40.4609C297.199 43.3438 297.516 45.8164 298.148 47.8789C298.805 49.918 299.719 51.5938 300.891 52.9062C302.062 54.2422 303.469 55.2148 305.109 55.8242C306.75 56.4336 308.555 56.7383 310.523 56.7383C312.68 56.7383 314.66 56.1992 316.465 55.1211C318.293 54.043 319.852 52.5547 321.141 50.6562L321.703 56ZM358.582 56.7031C362.262 56.7031 365.449 55.9883 368.145 54.5586C370.84 53.1289 372.809 51.5352 374.051 49.7773L369.164 44.5039C368.039 45.957 366.574 47.0469 364.77 47.7734C362.965 48.5 361.102 48.8633 359.18 48.8633C357.82 48.8633 356.566 48.6523 355.418 48.2305C354.27 47.8086 353.25 47.2109 352.359 46.4375C351.492 45.6875 350.801 44.8555 350.285 43.9414C349.77 43.0039 349.348 41.7734 349.02 40.25V40.1445H374.824V35.9961C374.824 33.207 374.438 30.6641 373.664 28.3672C372.891 26.0469 371.766 24.0664 370.289 22.4258C368.789 20.7852 366.961 19.5195 364.805 18.6289C362.672 17.7148 360.234 17.2578 357.492 17.2578C354.844 17.2578 352.395 17.7383 350.145 18.6992C347.895 19.6602 345.949 21.0078 344.309 22.7422C342.668 24.4766 341.391 26.5508 340.477 28.9648C339.562 31.3555 339.105 34.0039 339.105 36.9102V38.3164C339.105 40.8711 339.562 43.2734 340.477 45.5234C341.414 47.75 342.738 49.6836 344.449 51.3242C346.16 52.9883 348.211 54.3008 350.602 55.2617C352.992 56.2227 355.652 56.7031 358.582 56.7031ZM357.422 25.168C358.664 25.168 359.754 25.3672 360.691 25.7656C361.652 26.1406 362.461 26.6562 363.117 27.3125C363.773 27.9922 364.289 28.7891 364.664 29.7031C365.039 30.6172 365.227 31.5898 365.227 32.6211V33.3945H349.195C349.43 32.1523 349.781 31.0273 350.25 30.0195C350.719 29.0117 351.305 28.1445 352.008 27.418C352.688 26.6914 353.484 26.1406 354.398 25.7656C355.312 25.3672 356.32 25.168 357.422 25.168ZM457.758 33.5703V25.7656H436.734V12.8633H461.203V4.8125H426.82V56H461.309V48.0195H436.734V33.5703H457.758ZM487.781 8.64453H478.008V17.9609H469.324V25.168H478.008V42.4648C478.008 44.9727 478.336 47.1289 478.992 48.9336C479.648 50.7148 480.586 52.1797 481.805 53.3281C483 54.5 484.441 55.3672 486.129 55.9297C487.84 56.4688 489.738 56.7383 491.824 56.7383C492.902 56.7383 493.992 56.6797 495.094 56.5625C496.219 56.4688 497.297 56.3281 498.328 56.1406C499.359 55.9531 500.332 55.7188 501.246 55.4375C502.16 55.1328 502.957 54.7812 503.637 54.3828L502.688 47.668C502.242 47.7852 501.703 47.9023 501.07 48.0195C500.461 48.1367 499.805 48.2422 499.102 48.3359C498.375 48.4531 497.613 48.5469 496.816 48.6172C496.043 48.6875 495.281 48.7227 494.531 48.7227C493.5 48.7227 492.562 48.6055 491.719 48.3711C490.898 48.1367 490.195 47.7383 489.609 47.1758C489.023 46.6367 488.566 45.9102 488.238 44.9961C487.934 44.0586 487.781 42.8984 487.781 41.5156V25.168H501.984V17.9609H487.781V8.64453ZM522.867 23.1992V2H513.094V56H522.867V28.543C523.242 28.0508 523.652 27.6055 524.098 27.207C524.566 26.8086 525.082 26.4688 525.645 26.1875C526.254 25.8594 526.934 25.6133 527.684 25.4492C528.434 25.2852 529.242 25.2031 530.109 25.2031C531.234 25.2031 532.242 25.3555 533.133 25.6602C534.023 25.9414 534.785 26.3867 535.418 26.9961C536.051 27.6055 536.531 28.4023 536.859 29.3867C537.211 30.3711 537.387 31.543 537.387 32.9023V56H547.16V32.9727C547.16 30.1836 546.82 27.8047 546.141 25.8359C545.484 23.8438 544.559 22.2148 543.363 20.9492C542.168 19.6836 540.738 18.7578 539.074 18.1719C537.41 17.5625 535.582 17.2578 533.59 17.2578C532.23 17.2578 530.941 17.457 529.723 17.8555C528.504 18.2539 527.391 18.8164 526.383 19.543C525.727 20.0117 525.094 20.5625 524.484 21.1953C523.898 21.8047 523.359 22.4727 522.867 23.1992ZM558.938 17.9609V25.9414H569.766V48.0547H558.938V56H589.945V48.0547H579.645V17.9609H558.938ZM569.062 8.22266C569.062 8.97266 569.191 9.67578 569.449 10.332C569.73 10.9648 570.117 11.5039 570.609 11.9492C571.102 12.418 571.688 12.7813 572.367 13.0391C573.07 13.2969 573.844 13.4258 574.688 13.4258C576.422 13.4258 577.793 12.9453 578.801 11.9844C579.832 11 580.348 9.74609 580.348 8.22266C580.348 6.69922 579.832 5.45703 578.801 4.49609C577.793 3.51172 576.422 3.01953 574.688 3.01953C573.844 3.01953 573.07 3.14844 572.367 3.40625C571.688 3.66406 571.102 4.01562 570.609 4.46094C570.117 4.92969 569.73 5.49219 569.449 6.14844C569.191 6.78125 569.062 7.47266 569.062 8.22266ZM616.418 48.8984C614.848 48.8984 613.547 48.582 612.516 47.9492C611.508 47.3164 610.711 46.4727 610.125 45.418C609.516 44.3867 609.094 43.1914 608.859 41.832C608.625 40.4492 608.508 39.0195 608.508 37.543V36.4883C608.508 35.0352 608.625 33.6289 608.859 32.2695C609.117 30.9102 609.551 29.7031 610.16 28.6484C610.746 27.5938 611.543 26.75 612.551 26.1172C613.559 25.4844 614.836 25.168 616.383 25.168C617.438 25.168 618.41 25.3555 619.301 25.7305C620.191 26.082 620.953 26.5625 621.586 27.1719C622.219 27.7812 622.699 28.5078 623.027 29.3516C623.355 30.1953 623.496 31.0859 623.449 32.0234H632.66C632.707 29.7734 632.332 27.7461 631.535 25.9414C630.738 24.1133 629.625 22.5547 628.195 21.2656C626.742 20 625.02 19.0156 623.027 18.3125C621.035 17.6094 618.867 17.2578 616.523 17.2578C613.594 17.2578 611.016 17.7617 608.789 18.7695C606.586 19.7773 604.734 21.1484 603.234 22.8828C601.734 24.6172 600.609 26.6562 599.859 29C599.109 31.3203 598.734 33.8164 598.734 36.4883V37.543C598.734 40.2148 599.109 42.7227 599.859 45.0664C600.633 47.3867 601.77 49.4141 603.27 51.1484C604.746 52.8828 606.598 54.2539 608.824 55.2617C611.051 56.2461 613.641 56.7383 616.594 56.7383C618.773 56.7383 620.836 56.3984 622.781 55.7188C624.75 55.0156 626.473 54.0547 627.949 52.8359C629.426 51.6172 630.586 50.1641 631.43 48.4766C632.297 46.7891 632.707 44.9609 632.66 42.9922H623.449C623.496 43.8828 623.332 44.6914 622.957 45.418C622.605 46.1445 622.102 46.7656 621.445 47.2812C620.789 47.7969 620.027 48.1953 619.16 48.4766C618.293 48.7578 617.379 48.8984 616.418 48.8984ZM667.359 45.5586C667.359 46.1445 667.207 46.6836 666.902 47.1758C666.621 47.668 666.188 48.1016 665.602 48.4766C664.992 48.8516 664.207 49.1562 663.246 49.3906C662.309 49.6016 661.207 49.707 659.941 49.707C658.887 49.707 657.855 49.6016 656.848 49.3906C655.863 49.1797 654.984 48.8398 654.211 48.3711C653.438 47.9258 652.805 47.3398 652.312 46.6133C651.82 45.8633 651.539 44.9727 651.469 43.9414H642.152C642.152 45.4883 642.527 47.0352 643.277 48.582C644.051 50.1055 645.176 51.4648 646.652 52.6602C648.129 53.8789 649.957 54.8633 652.137 55.6133C654.34 56.3633 656.871 56.7383 659.73 56.7383C662.332 56.7383 664.688 56.457 666.797 55.8945C668.906 55.3086 670.711 54.5 672.211 53.4688C673.688 52.4375 674.824 51.2188 675.621 49.8125C676.441 48.3828 676.852 46.8242 676.852 45.1367C676.852 43.3086 676.441 41.7383 675.621 40.4258C674.824 39.0898 673.711 37.9531 672.281 37.0156C670.852 36.1016 669.152 35.3516 667.184 34.7656C665.215 34.1797 663.082 33.6992 660.785 33.3242C659.191 33.0898 657.879 32.8203 656.848 32.5156C655.816 32.1875 655.008 31.8242 654.422 31.4258C653.812 31.0508 653.391 30.6289 653.156 30.1602C652.922 29.668 652.805 29.1406 652.805 28.5781C652.805 28.0156 652.934 27.4883 653.191 26.9961C653.473 26.4805 653.871 26.0352 654.387 25.6602C654.949 25.2383 655.676 24.9102 656.566 24.6758C657.457 24.4414 658.5 24.3242 659.695 24.3242C661.102 24.3242 662.297 24.5 663.281 24.8516C664.289 25.2031 665.086 25.6719 665.672 26.2578C666.094 26.7031 666.41 27.207 666.621 27.7695C666.832 28.3086 666.938 28.8945 666.938 29.5273H676.711C676.711 27.7695 676.324 26.1406 675.551 24.6406C674.777 23.1406 673.664 21.8398 672.211 20.7383C670.734 19.6602 668.941 18.8164 666.832 18.207C664.723 17.5742 662.344 17.2578 659.695 17.2578C657.164 17.2578 654.891 17.5742 652.875 18.207C650.859 18.8398 649.148 19.6953 647.742 20.7734C646.336 21.8516 645.258 23.1055 644.508 24.5352C643.758 25.9648 643.383 27.4648 643.383 29.0352C643.383 30.6523 643.746 32.082 644.473 33.3242C645.223 34.5664 646.254 35.6562 647.566 36.5938C648.879 37.5547 650.449 38.375 652.277 39.0547C654.129 39.7109 656.168 40.2617 658.395 40.707C660.152 41.0352 661.605 41.3633 662.754 41.6914C663.902 42.0195 664.828 42.3711 665.531 42.7461C666.211 43.1445 666.68 43.5664 666.938 44.0117C667.219 44.457 667.359 44.9727 667.359 45.5586ZM735.387 17.9609H726.984V56H735.879V27.5234C735.996 27.2188 736.125 26.9375 736.266 26.6797C736.406 26.4219 736.57 26.1992 736.758 26.0117C737.016 25.7539 737.309 25.5547 737.637 25.4141C737.965 25.2734 738.34 25.2031 738.762 25.2031C739.137 25.2031 739.488 25.2617 739.816 25.3789C740.145 25.4727 740.438 25.6484 740.695 25.9062C740.93 26.1641 741.117 26.5273 741.258 26.9961C741.398 27.4648 741.469 28.0625 741.469 28.7891V56H750.082V27.9453C750.082 27.6641 750.082 27.4414 750.082 27.2773C750.082 27.1133 750.082 27.0078 750.082 26.9609C750.199 26.7031 750.34 26.4805 750.504 26.293C750.668 26.082 750.855 25.8945 751.066 25.7305C751.324 25.5664 751.594 25.4375 751.875 25.3438C752.18 25.25 752.52 25.2031 752.895 25.2031C753.246 25.2031 753.586 25.2617 753.914 25.3789C754.266 25.4727 754.57 25.6484 754.828 25.9062C755.086 26.1875 755.285 26.5625 755.426 27.0312C755.59 27.5 755.672 28.0977 755.672 28.8242V56H764.566V28.8594C764.566 26.75 764.355 24.9688 763.934 23.5156C763.535 22.0391 762.973 20.832 762.246 19.8945C761.496 18.9805 760.617 18.3125 759.609 17.8906C758.625 17.4688 757.559 17.2578 756.41 17.2578C755.496 17.2578 754.652 17.375 753.879 17.6094C753.105 17.8438 752.414 18.1719 751.805 18.5938C751.312 18.9219 750.855 19.3203 750.434 19.7891C750.035 20.2344 749.672 20.7383 749.344 21.3008C749.133 20.7148 748.875 20.1992 748.57 19.7539C748.289 19.2852 747.949 18.8867 747.551 18.5586C747.035 18.1133 746.426 17.7852 745.723 17.5742C745.02 17.3633 744.223 17.2578 743.332 17.2578C741.504 17.2578 739.945 17.7383 738.656 18.6992C737.391 19.6367 736.395 20.9258 735.668 22.5664L735.387 17.9609ZM771.211 36.6289V37.3672C771.211 40.1562 771.609 42.7344 772.406 45.1016C773.203 47.4453 774.375 49.4844 775.922 51.2188C777.445 52.9531 779.32 54.3125 781.547 55.2969C783.797 56.2578 786.352 56.7383 789.211 56.7383C792.047 56.7383 794.578 56.2578 796.805 55.2969C799.031 54.3125 800.906 52.9531 802.43 51.2188C803.953 49.4844 805.113 47.4453 805.91 45.1016C806.707 42.7344 807.105 40.1562 807.105 37.3672V36.6289C807.105 33.8633 806.707 31.3086 805.91 28.9648C805.113 26.5977 803.953 24.5469 802.43 22.8125C800.883 21.0781 798.996 19.7188 796.77 18.7344C794.543 17.75 792 17.2578 789.141 17.2578C786.281 17.2578 783.738 17.75 781.512 18.7344C779.309 19.7188 777.445 21.0781 775.922 22.8125C774.375 24.5469 773.203 26.5977 772.406 28.9648C771.609 31.3086 771.211 33.8633 771.211 36.6289ZM780.984 37.3672V36.6289C780.984 35.082 781.137 33.6172 781.441 32.2344C781.746 30.8516 782.227 29.6328 782.883 28.5781C783.539 27.5234 784.383 26.6914 785.414 26.082C786.445 25.4727 787.688 25.168 789.141 25.168C790.617 25.168 791.871 25.4727 792.902 26.082C793.934 26.6914 794.777 27.5234 795.434 28.5781C796.066 29.6328 796.535 30.8516 796.84 32.2344C797.145 33.6172 797.297 35.082 797.297 36.6289V37.3672C797.297 38.9609 797.145 40.4609 796.84 41.8672C796.535 43.25 796.066 44.457 795.434 45.4883C794.777 46.543 793.934 47.375 792.902 47.9844C791.871 48.5938 790.641 48.8984 789.211 48.8984C787.734 48.8984 786.469 48.5938 785.414 47.9844C784.383 47.375 783.539 46.543 782.883 45.4883C782.227 44.457 781.746 43.25 781.441 41.8672C781.137 40.4609 780.984 38.9609 780.984 37.3672ZM843.105 17.2578C840.551 17.2578 838.195 17.8789 836.039 19.1211C833.883 20.3398 832.031 22.0273 830.484 24.1836L830.414 23.3398L830.027 17.9609H820.922V56H830.695V33.1484C831.141 32.0703 831.703 31.1328 832.383 30.3359C833.062 29.5391 833.883 28.8828 834.844 28.3672C835.641 27.9219 836.543 27.5938 837.551 27.3828C838.582 27.1484 839.73 27.0312 840.996 27.0312C842.215 27.0312 843.492 27.1133 844.828 27.2773C846.188 27.418 847.512 27.6406 848.801 27.9453L850.242 18.207C849.469 17.9727 848.449 17.7617 847.184 17.5742C845.941 17.3633 844.582 17.2578 843.105 17.2578ZM877.488 56.7031C881.168 56.7031 884.355 55.9883 887.051 54.5586C889.746 53.1289 891.715 51.5352 892.957 49.7773L888.07 44.5039C886.945 45.957 885.48 47.0469 883.676 47.7734C881.871 48.5 880.008 48.8633 878.086 48.8633C876.727 48.8633 875.473 48.6523 874.324 48.2305C873.176 47.8086 872.156 47.2109 871.266 46.4375C870.398 45.6875 869.707 44.8555 869.191 43.9414C868.676 43.0039 868.254 41.7734 867.926 40.25V40.1445H893.73V35.9961C893.73 33.207 893.344 30.6641 892.57 28.3672C891.797 26.0469 890.672 24.0664 889.195 22.4258C887.695 20.7852 885.867 19.5195 883.711 18.6289C881.578 17.7148 879.141 17.2578 876.398 17.2578C873.75 17.2578 871.301 17.7383 869.051 18.6992C866.801 19.6602 864.855 21.0078 863.215 22.7422C861.574 24.4766 860.297 26.5508 859.383 28.9648C858.469 31.3555 858.012 34.0039 858.012 36.9102V38.3164C858.012 40.8711 858.469 43.2734 859.383 45.5234C860.32 47.75 861.645 49.6836 863.355 51.3242C865.066 52.9883 867.117 54.3008 869.508 55.2617C871.898 56.2227 874.559 56.7031 877.488 56.7031ZM876.328 25.168C877.57 25.168 878.66 25.3672 879.598 25.7656C880.559 26.1406 881.367 26.6562 882.023 27.3125C882.68 27.9922 883.195 28.7891 883.57 29.7031C883.945 30.6172 884.133 31.5898 884.133 32.6211V33.3945H868.102C868.336 32.1523 868.688 31.0273 869.156 30.0195C869.625 29.0117 870.211 28.1445 870.914 27.418C871.594 26.6914 872.391 26.1406 873.305 25.7656C874.219 25.3672 875.227 25.168 876.328 25.168ZM963.445 8.64453H953.672V17.9609H944.988V25.168H953.672V42.4648C953.672 44.9727 954 47.1289 954.656 48.9336C955.312 50.7148 956.25 52.1797 957.469 53.3281C958.664 54.5 960.105 55.3672 961.793 55.9297C963.504 56.4688 965.402 56.7383 967.488 56.7383C968.566 56.7383 969.656 56.6797 970.758 56.5625C971.883 56.4688 972.961 56.3281 973.992 56.1406C975.023 55.9531 975.996 55.7188 976.91 55.4375C977.824 55.1328 978.621 54.7812 979.301 54.3828L978.352 47.668C977.906 47.7852 977.367 47.9023 976.734 48.0195C976.125 48.1367 975.469 48.2422 974.766 48.3359C974.039 48.4531 973.277 48.5469 972.48 48.6172C971.707 48.6875 970.945 48.7227 970.195 48.7227C969.164 48.7227 968.227 48.6055 967.383 48.3711C966.562 48.1367 965.859 47.7383 965.273 47.1758C964.688 46.6367 964.23 45.9102 963.902 44.9961C963.598 44.0586 963.445 42.8984 963.445 41.5156V25.168H977.648V17.9609H963.445V8.64453ZM998.531 23.1992V2H988.758V56H998.531V28.543C998.906 28.0508 999.316 27.6055 999.762 27.207C1000.23 26.8086 1000.75 26.4688 1001.31 26.1875C1001.92 25.8594 1002.6 25.6133 1003.35 25.4492C1004.1 25.2852 1004.91 25.2031 1005.77 25.2031C1006.9 25.2031 1007.91 25.3555 1008.8 25.6602C1009.69 25.9414 1010.45 26.3867 1011.08 26.9961C1011.71 27.6055 1012.2 28.4023 1012.52 29.3867C1012.88 30.3711 1013.05 31.543 1013.05 32.9023V56H1022.82V32.9727C1022.82 30.1836 1022.48 27.8047 1021.8 25.8359C1021.15 23.8438 1020.22 22.2148 1019.03 20.9492C1017.83 19.6836 1016.4 18.7578 1014.74 18.1719C1013.07 17.5625 1011.25 17.2578 1009.25 17.2578C1007.89 17.2578 1006.61 17.457 1005.39 17.8555C1004.17 18.2539 1003.05 18.8164 1002.05 19.543C1001.39 20.0117 1000.76 20.5625 1000.15 21.1953C999.562 21.8047 999.023 22.4727 998.531 23.1992ZM1055.77 56H1065.68V55.4023C1065.19 54.4414 1064.81 53.293 1064.55 51.957C1064.3 50.6211 1064.17 48.9336 1064.17 46.8945V30.582C1064.17 28.3789 1063.76 26.4453 1062.94 24.7812C1062.12 23.0938 1060.98 21.6992 1059.53 20.5977C1058.07 19.4961 1056.35 18.6641 1054.36 18.1016C1052.39 17.5391 1050.26 17.2578 1047.96 17.2578C1045.41 17.2578 1043.13 17.5859 1041.14 18.2422C1039.17 18.875 1037.51 19.7422 1036.15 20.8438C1034.77 21.9453 1033.71 23.2227 1032.98 24.6758C1032.28 26.1289 1031.93 27.6641 1031.93 29.2812H1041.7C1041.7 28.6016 1041.8 27.9805 1041.98 27.418C1042.2 26.8555 1042.51 26.375 1042.93 25.9766C1043.4 25.5312 1044.01 25.1914 1044.76 24.957C1045.51 24.6992 1046.4 24.5703 1047.43 24.5703C1048.61 24.5703 1049.62 24.7227 1050.49 25.0273C1051.38 25.3086 1052.12 25.7188 1052.71 26.2578C1053.27 26.7734 1053.69 27.3945 1053.97 28.1211C1054.25 28.8242 1054.39 29.6211 1054.39 30.5117V32.7617H1048.95C1046.13 32.7617 1043.64 33.0195 1041.46 33.5352C1039.3 34.0273 1037.48 34.7539 1036.01 35.7148C1034.37 36.7695 1033.14 38.1172 1032.32 39.7578C1031.5 41.375 1031.09 43.2383 1031.09 45.3477C1031.09 46.9883 1031.41 48.5117 1032.07 49.918C1032.73 51.3008 1033.64 52.4961 1034.81 53.5039C1035.98 54.5117 1037.38 55.2969 1039 55.8594C1040.64 56.4219 1042.43 56.7031 1044.38 56.7031C1045.57 56.7031 1046.68 56.5859 1047.71 56.3516C1048.75 56.1406 1049.7 55.8359 1050.56 55.4375C1051.41 55.0625 1052.18 54.6172 1052.88 54.1016C1053.59 53.5859 1054.21 53.0352 1054.75 52.4492C1054.86 53.1289 1055 53.7734 1055.17 54.3828C1055.33 54.9922 1055.53 55.5312 1055.77 56ZM1046.45 49.1445C1045.54 49.1445 1044.73 49.0391 1044.02 48.8281C1043.34 48.5938 1042.77 48.2891 1042.3 47.9141C1041.83 47.5156 1041.47 47.0352 1041.21 46.4727C1040.98 45.8867 1040.86 45.2539 1040.86 44.5742C1040.86 43.707 1041.02 42.9102 1041.35 42.1836C1041.68 41.4336 1042.18 40.7891 1042.86 40.25C1043.54 39.7344 1044.42 39.3359 1045.5 39.0547C1046.58 38.75 1047.88 38.5977 1049.4 38.5977H1054.39V45.1367C1054.11 45.6289 1053.73 46.1211 1053.23 46.6133C1052.74 47.082 1052.16 47.5039 1051.48 47.8789C1050.8 48.2539 1050.04 48.5586 1049.19 48.793C1048.35 49.0273 1047.43 49.1445 1046.45 49.1445ZM1075.24 56H1085.05V28.9648C1085.38 28.4492 1085.74 27.9805 1086.14 27.5586C1086.54 27.1367 1086.98 26.7734 1087.48 26.4688C1088.09 26.0469 1088.78 25.7305 1089.55 25.5195C1090.35 25.3086 1091.21 25.2031 1092.15 25.2031C1093.28 25.2031 1094.29 25.3203 1095.18 25.5547C1096.07 25.7656 1096.83 26.1523 1097.46 26.7148C1098.09 27.2773 1098.57 28.0508 1098.9 29.0352C1099.25 29.9961 1099.43 31.2266 1099.43 32.7266V56H1109.2V32.5859C1109.2 29.8203 1108.88 27.4766 1108.22 25.5547C1107.59 23.6094 1106.7 22.0156 1105.55 20.7734C1104.38 19.5547 1102.99 18.6641 1101.4 18.1016C1099.8 17.5391 1098.05 17.2578 1096.12 17.2578C1094.62 17.2578 1093.21 17.4688 1091.87 17.8906C1090.54 18.3125 1089.3 18.9219 1088.18 19.7188C1087.52 20.1875 1086.9 20.7148 1086.32 21.3008C1085.73 21.8867 1085.19 22.5312 1084.7 23.2344L1084.1 17.9609H1075.24V56Z" fill="#0B8C63"/>
<path d="M300.082 140.312L303.07 151H313.477L297.023 99.8125H288.059L271.289 151H281.695L284.719 140.312H300.082ZM287.145 131.91L292.523 113.066L297.762 131.91H287.145ZM318.504 151H328.312V123.965C328.641 123.449 329.004 122.98 329.402 122.559C329.801 122.137 330.246 121.773 330.738 121.469C331.348 121.047 332.039 120.73 332.812 120.52C333.609 120.309 334.477 120.203 335.414 120.203C336.539 120.203 337.547 120.32 338.438 120.555C339.328 120.766 340.09 121.152 340.723 121.715C341.355 122.277 341.836 123.051 342.164 124.035C342.516 124.996 342.691 126.227 342.691 127.727V151H352.465V127.586C352.465 124.82 352.137 122.477 351.48 120.555C350.848 118.609 349.957 117.016 348.809 115.773C347.637 114.555 346.254 113.664 344.66 113.102C343.066 112.539 341.309 112.258 339.387 112.258C337.887 112.258 336.469 112.469 335.133 112.891C333.797 113.312 332.566 113.922 331.441 114.719C330.785 115.188 330.164 115.715 329.578 116.301C328.992 116.887 328.453 117.531 327.961 118.234L327.363 112.961H318.504V151ZM367.758 166.363C369.727 166.363 371.426 166.035 372.855 165.379C374.309 164.723 375.539 163.914 376.547 162.953C377.555 161.992 378.387 160.949 379.043 159.824C379.723 158.699 380.273 157.656 380.695 156.695L399.996 112.961H389.203L380.52 135.32L379.078 139.117L378.023 135.25L369.305 112.961H358.617L374.719 149.383L372.469 153.566C372.188 154.082 371.941 154.48 371.73 154.762C371.543 155.043 371.238 155.465 370.816 156.027C370.395 156.59 369.879 157.105 369.27 157.574C368.684 158.066 368.004 158.312 367.23 158.312C366.855 158.312 366.352 158.289 365.719 158.242C365.109 158.219 364.605 158.207 364.207 158.207L363.012 165.66C363.855 165.895 364.617 166.07 365.297 166.188C366 166.305 366.82 166.363 367.758 166.363ZM422.918 103.645H413.145V112.961H404.461V120.168H413.145V137.465C413.145 139.973 413.473 142.129 414.129 143.934C414.785 145.715 415.723 147.18 416.941 148.328C418.137 149.5 419.578 150.367 421.266 150.93C422.977 151.469 424.875 151.738 426.961 151.738C428.039 151.738 429.129 151.68 430.23 151.562C431.355 151.469 432.434 151.328 433.465 151.141C434.496 150.953 435.469 150.719 436.383 150.438C437.297 150.133 438.094 149.781 438.773 149.383L437.824 142.668C437.379 142.785 436.84 142.902 436.207 143.02C435.598 143.137 434.941 143.242 434.238 143.336C433.512 143.453 432.75 143.547 431.953 143.617C431.18 143.688 430.418 143.723 429.668 143.723C428.637 143.723 427.699 143.605 426.855 143.371C426.035 143.137 425.332 142.738 424.746 142.176C424.16 141.637 423.703 140.91 423.375 139.996C423.07 139.059 422.918 137.898 422.918 136.516V120.168H437.121V112.961H422.918V103.645ZM458.004 118.199V97H448.23V151H458.004V123.543C458.379 123.051 458.789 122.605 459.234 122.207C459.703 121.809 460.219 121.469 460.781 121.188C461.391 120.859 462.07 120.613 462.82 120.449C463.57 120.285 464.379 120.203 465.246 120.203C466.371 120.203 467.379 120.355 468.27 120.66C469.16 120.941 469.922 121.387 470.555 121.996C471.188 122.605 471.668 123.402 471.996 124.387C472.348 125.371 472.523 126.543 472.523 127.902V151H482.297V127.973C482.297 125.184 481.957 122.805 481.277 120.836C480.621 118.844 479.695 117.215 478.5 115.949C477.305 114.684 475.875 113.758 474.211 113.172C472.547 112.562 470.719 112.258 468.727 112.258C467.367 112.258 466.078 112.457 464.859 112.855C463.641 113.254 462.527 113.816 461.52 114.543C460.863 115.012 460.23 115.562 459.621 116.195C459.035 116.805 458.496 117.473 458.004 118.199ZM494.074 112.961V120.941H504.902V143.055H494.074V151H525.082V143.055H514.781V112.961H494.074ZM504.199 103.223C504.199 103.973 504.328 104.676 504.586 105.332C504.867 105.965 505.254 106.504 505.746 106.949C506.238 107.418 506.824 107.781 507.504 108.039C508.207 108.297 508.98 108.426 509.824 108.426C511.559 108.426 512.93 107.945 513.938 106.984C514.969 106 515.484 104.746 515.484 103.223C515.484 101.699 514.969 100.457 513.938 99.4961C512.93 98.5117 511.559 98.0195 509.824 98.0195C508.98 98.0195 508.207 98.1484 507.504 98.4062C506.824 98.6641 506.238 99.0156 505.746 99.4609C505.254 99.9297 504.867 100.492 504.586 101.148C504.328 101.781 504.199 102.473 504.199 103.223ZM534.715 151H544.523V123.965C544.852 123.449 545.215 122.98 545.613 122.559C546.012 122.137 546.457 121.773 546.949 121.469C547.559 121.047 548.25 120.73 549.023 120.52C549.82 120.309 550.688 120.203 551.625 120.203C552.75 120.203 553.758 120.32 554.648 120.555C555.539 120.766 556.301 121.152 556.934 121.715C557.566 122.277 558.047 123.051 558.375 124.035C558.727 124.996 558.902 126.227 558.902 127.727V151H568.676V127.586C568.676 124.82 568.348 122.477 567.691 120.555C567.059 118.609 566.168 117.016 565.02 115.773C563.848 114.555 562.465 113.664 560.871 113.102C559.277 112.539 557.52 112.258 555.598 112.258C554.098 112.258 552.68 112.469 551.344 112.891C550.008 113.312 548.777 113.922 547.652 114.719C546.996 115.188 546.375 115.715 545.789 116.301C545.203 116.887 544.664 117.531 544.172 118.234L543.574 112.961H534.715V151ZM576.973 131.699V132.438C576.973 135.203 577.324 137.77 578.027 140.137C578.754 142.48 579.785 144.508 581.121 146.219C582.457 147.93 584.062 149.277 585.938 150.262C587.836 151.223 589.969 151.703 592.336 151.703C593.531 151.703 594.645 151.574 595.676 151.316C596.73 151.059 597.691 150.695 598.559 150.227C599.145 149.898 599.695 149.523 600.211 149.102C600.727 148.68 601.219 148.211 601.688 147.695V149.875C601.688 151.164 601.5 152.324 601.125 153.355C600.773 154.387 600.258 155.254 599.578 155.957C598.828 156.73 597.891 157.316 596.766 157.715C595.664 158.113 594.398 158.312 592.969 158.312C592.078 158.312 591.211 158.219 590.367 158.031C589.547 157.867 588.75 157.609 587.977 157.258C587.18 156.906 586.418 156.449 585.691 155.887C584.965 155.348 584.285 154.715 583.652 153.988L579.258 159.93C580.078 160.984 581.062 161.887 582.211 162.637C583.359 163.41 584.578 164.043 585.867 164.535C587.156 165.027 588.457 165.391 589.77 165.625C591.082 165.859 592.312 165.977 593.461 165.977C596.133 165.977 598.57 165.613 600.773 164.887C603 164.184 604.91 163.141 606.504 161.758C608.074 160.375 609.293 158.676 610.16 156.66C611.051 154.645 611.496 152.348 611.496 149.77V112.961H602.602L602.215 116.582C601.746 115.996 601.23 115.469 600.668 115C600.105 114.508 599.496 114.086 598.84 113.734C597.973 113.242 597 112.879 595.922 112.645C594.867 112.387 593.695 112.258 592.406 112.258C590.016 112.258 587.871 112.727 585.973 113.664C584.074 114.602 582.457 115.926 581.121 117.637C579.785 119.348 578.754 121.398 578.027 123.789C577.324 126.18 576.973 128.816 576.973 131.699ZM586.781 132.438V131.699C586.781 130.105 586.945 128.617 587.273 127.234C587.602 125.828 588.105 124.598 588.785 123.543C589.441 122.512 590.273 121.703 591.281 121.117C592.289 120.508 593.484 120.203 594.867 120.203C595.617 120.203 596.309 120.273 596.941 120.414C597.598 120.555 598.195 120.754 598.734 121.012C599.367 121.316 599.93 121.715 600.422 122.207C600.914 122.699 601.336 123.273 601.688 123.93V140.031C601.359 140.617 600.973 141.145 600.527 141.613C600.082 142.082 599.566 142.48 598.98 142.809C598.418 143.113 597.785 143.348 597.082 143.512C596.402 143.676 595.641 143.758 594.797 143.758C593.414 143.758 592.219 143.465 591.211 142.879C590.203 142.293 589.371 141.484 588.715 140.453C588.059 139.445 587.566 138.262 587.238 136.902C586.934 135.52 586.781 134.031 586.781 132.438ZM695.59 128.57V120.766H674.566V107.863H699.035V99.8125H664.652V151H699.141V143.02H674.566V128.57H695.59ZM709.723 97V104.98H721.113V143.055H709.723V151H741.891V143.055H730.992V97H709.723ZM775.465 140.559C775.465 141.145 775.312 141.684 775.008 142.176C774.727 142.668 774.293 143.102 773.707 143.477C773.098 143.852 772.312 144.156 771.352 144.391C770.414 144.602 769.312 144.707 768.047 144.707C766.992 144.707 765.961 144.602 764.953 144.391C763.969 144.18 763.09 143.84 762.316 143.371C761.543 142.926 760.91 142.34 760.418 141.613C759.926 140.863 759.645 139.973 759.574 138.941H750.258C750.258 140.488 750.633 142.035 751.383 143.582C752.156 145.105 753.281 146.465 754.758 147.66C756.234 148.879 758.062 149.863 760.242 150.613C762.445 151.363 764.977 151.738 767.836 151.738C770.438 151.738 772.793 151.457 774.902 150.895C777.012 150.309 778.816 149.5 780.316 148.469C781.793 147.438 782.93 146.219 783.727 144.812C784.547 143.383 784.957 141.824 784.957 140.137C784.957 138.309 784.547 136.738 783.727 135.426C782.93 134.09 781.816 132.953 780.387 132.016C778.957 131.102 777.258 130.352 775.289 129.766C773.32 129.18 771.188 128.699 768.891 128.324C767.297 128.09 765.984 127.82 764.953 127.516C763.922 127.188 763.113 126.824 762.527 126.426C761.918 126.051 761.496 125.629 761.262 125.16C761.027 124.668 760.91 124.141 760.91 123.578C760.91 123.016 761.039 122.488 761.297 121.996C761.578 121.48 761.977 121.035 762.492 120.66C763.055 120.238 763.781 119.91 764.672 119.676C765.562 119.441 766.605 119.324 767.801 119.324C769.207 119.324 770.402 119.5 771.387 119.852C772.395 120.203 773.191 120.672 773.777 121.258C774.199 121.703 774.516 122.207 774.727 122.77C774.938 123.309 775.043 123.895 775.043 124.527H784.816C784.816 122.77 784.43 121.141 783.656 119.641C782.883 118.141 781.77 116.84 780.316 115.738C778.84 114.66 777.047 113.816 774.938 113.207C772.828 112.574 770.449 112.258 767.801 112.258C765.27 112.258 762.996 112.574 760.98 113.207C758.965 113.84 757.254 114.695 755.848 115.773C754.441 116.852 753.363 118.105 752.613 119.535C751.863 120.965 751.488 122.465 751.488 124.035C751.488 125.652 751.852 127.082 752.578 128.324C753.328 129.566 754.359 130.656 755.672 131.594C756.984 132.555 758.555 133.375 760.383 134.055C762.234 134.711 764.273 135.262 766.5 135.707C768.258 136.035 769.711 136.363 770.859 136.691C772.008 137.02 772.934 137.371 773.637 137.746C774.316 138.145 774.785 138.566 775.043 139.012C775.324 139.457 775.465 139.973 775.465 140.559ZM812.625 151.703C816.305 151.703 819.492 150.988 822.188 149.559C824.883 148.129 826.852 146.535 828.094 144.777L823.207 139.504C822.082 140.957 820.617 142.047 818.812 142.773C817.008 143.5 815.145 143.863 813.223 143.863C811.863 143.863 810.609 143.652 809.461 143.23C808.312 142.809 807.293 142.211 806.402 141.438C805.535 140.688 804.844 139.855 804.328 138.941C803.812 138.004 803.391 136.773 803.062 135.25V135.145H828.867V130.996C828.867 128.207 828.48 125.664 827.707 123.367C826.934 121.047 825.809 119.066 824.332 117.426C822.832 115.785 821.004 114.52 818.848 113.629C816.715 112.715 814.277 112.258 811.535 112.258C808.887 112.258 806.438 112.738 804.188 113.699C801.938 114.66 799.992 116.008 798.352 117.742C796.711 119.477 795.434 121.551 794.52 123.965C793.605 126.355 793.148 129.004 793.148 131.91V133.316C793.148 135.871 793.605 138.273 794.52 140.523C795.457 142.75 796.781 144.684 798.492 146.324C800.203 147.988 802.254 149.301 804.645 150.262C807.035 151.223 809.695 151.703 812.625 151.703ZM811.465 120.168C812.707 120.168 813.797 120.367 814.734 120.766C815.695 121.141 816.504 121.656 817.16 122.312C817.816 122.992 818.332 123.789 818.707 124.703C819.082 125.617 819.27 126.59 819.27 127.621V128.395H803.238C803.473 127.152 803.824 126.027 804.293 125.02C804.762 124.012 805.348 123.145 806.051 122.418C806.73 121.691 807.527 121.141 808.441 120.766C809.355 120.367 810.363 120.168 811.465 120.168ZM853.898 102.238V96.1562H846.059V102.238C846.059 104.512 845.766 106.527 845.18 108.285C844.617 110.043 843.891 111.684 843 113.207L847.465 115.984C848.379 115.164 849.223 114.215 849.996 113.137C850.77 112.035 851.449 110.875 852.035 109.656C852.621 108.461 853.078 107.23 853.406 105.965C853.734 104.676 853.898 103.434 853.898 102.238ZM866.52 102.238V96.1562H858.68V102.238C858.68 104.512 858.387 106.527 857.801 108.285C857.238 110.043 856.512 111.684 855.621 113.207L860.086 115.984C861 115.164 861.844 114.215 862.617 113.137C863.391 112.035 864.07 110.875 864.656 109.656C865.242 108.461 865.699 107.23 866.027 105.965C866.355 104.676 866.52 103.434 866.52 102.238Z" fill="#17C28B"/>
</svg>
